<svg xmlns="http://www.w3.org/2000/svg" width="48" height="46" viewBox="0 0 48 46"><path d="M-1984.039-745.178c-2.722-.444-6.112-4.826-5.956-10.781s3.157-10.654,6.52-11.368a29.253,29.253,0,0,1,4.351-.471c-2.24-1.756-4.231-5.567-4.11-10.245.157-5.955,3.141-10.149,6.522-10.781A56.463,56.463,0,0,1-1965.12-790a84.176,84.176,0,0,1,9.929.588c-3.405,1.093-6.064,5.767-6.21,11.369s1.412,7.936,3.45,10.3a3.629,3.629,0,0,0-1.109-.176,5.876,5.876,0,0,0-.587-.043c-4.839,0-8.761,5.467-8.761,12.21,0,5.027,2.182,9.342,5.3,11.214a84.7,84.7,0,0,1-9.395.539A64.8,64.8,0,0,1-1984.039-745.178Zm33.283-2.6a2.415,2.415,0,0,0,.531.063c2.473,0,4.574-3.692,4.692-8.247s-1.788-8.246-4.26-8.246a2.548,2.548,0,0,0-.535.063,4.3,4.3,0,0,1,2.778-1.114c3.2,0,5.679,4.163,5.544,9.3s-2.834,9.3-6.03,9.3A4.072,4.072,0,0,1-1950.756-747.775Zm-11.943,0a2.4,2.4,0,0,0,.531.063c2.473,0,4.572-3.692,4.692-8.247s-1.788-8.246-4.26-8.246a2.552,2.552,0,0,0-.535.063,4.3,4.3,0,0,1,2.779-1.114c3.2,0,5.678,4.163,5.544,9.3s-2.834,9.3-6.031,9.3A4.068,4.068,0,0,1-1962.7-747.775Zm.254-4.942c.029-1.108.54-2.007,1.142-2.007s1.064.9,1.035,2.007-.54,2-1.14,2S-1962.473-751.609-1962.444-752.717Zm12.192-.194c.026-1.041.506-1.887,1.072-1.887s1,.845.973,1.887-.506,1.884-1.072,1.884S-1950.28-751.87-1950.253-752.911Zm-5.984-16.948a2.509,2.509,0,0,0,.532.063c2.473,0,4.573-3.691,4.692-8.246s-1.789-8.247-4.26-8.247a2.644,2.644,0,0,0-.535.063,4.289,4.289,0,0,1,2.779-1.116c3.2,0,5.678,4.163,5.544,9.3s-2.834,9.3-6.03,9.3A4.079,4.079,0,0,1-1956.237-769.859Zm.5-5.138c.029-1.041.508-1.884,1.075-1.884s1,.843.973,1.884-.508,1.887-1.073,1.887S-1955.76-773.956-1955.735-775Z" transform="translate(1990 790)" fill="#dbb28e"></path></svg>