<svg xmlns="http://www.w3.org/2000/svg" width="49" height="36" viewBox="0 0 49 36"><path d="M-2259.911-755c-3,0-4.325-.322-5.705-1.988-.973-1.175-1.449-2.319-2.949-2.319H-2280.5c-.272,0-.495-1.412-.495-3.155s.223-3.154.495-3.154h11.939c1.5,0,1.976-1.146,2.948-2.319,1.382-1.667,2.709-1.989,5.706-1.989h3.409v8h10.252v-8h4.463c.853,0,2.476.645,2.476,7.462s-1.621,7.461-2.476,7.461Zm19.965-17.387h-3.523v-7.574h4.463c.854,0,2.476.645,2.476,7.462a17.284,17.284,0,0,1-.711,5.809C-2237.531-771.843-2239.088-772.388-2239.946-772.388Zm-37.777,3.042c-.273,0-.5-1.412-.5-3.155s.223-3.153.5-3.153h11.938c1.5,0,1.976-1.144,2.95-2.319,1.381-1.667,2.708-1.989,5.707-1.989h3.408v7.574h-6.413c-3.338,0-4.818.322-6.355,1.989-.338.367-.622.727-.9,1.053Zm40.558-13.081h-2.773V-790h4.464c.852,0,2.475.645,2.475,7.462,0,4.475-.7,6.282-1.419,7C-2234.521-781.8-2236.245-782.426-2237.166-782.426Zm-37.028,3.042c-.272,0-.5-1.412-.5-3.154s.224-3.154.5-3.154h11.938c1.5,0,1.976-1.144,2.948-2.318,1.382-1.668,2.709-1.99,5.707-1.99h3.409v7.574h-7.164c-3.338,0-4.817.322-6.355,1.989-.337.366-.622.727-.9,1.054Z" transform="translate(2281.5 790.5)" fill="#dbb28e" stroke="rgba(0,0,0,0)" stroke-width="1"></path></svg>