<svg xmlns="http://www.w3.org/2000/svg" width="48" height="48" viewBox="0 0 48 48"><path d="M-2260.154-923.068a2.025,2.025,0,0,1,.624-1.481l1.142-1.093-3.531-1.524a2.029,2.029,0,0,1-1.219-1.833,2.023,2.023,0,0,1,1.162-1.868l2.707-1.27-3.434-1.169a2.028,2.028,0,0,1-1.369-1.89,2.029,2.029,0,0,1,1.308-1.931l3.3-1.239-5.508-1.681a2.027,2.027,0,0,1-1.426-2.04,2.018,2.018,0,0,1,1.619-1.887l8.773-1.748-2.045-1.146a2.03,2.03,0,0,1-1.032-1.759l-.018-2.566h-.711a4.737,4.737,0,0,1-3.167-1.233,33.494,33.494,0,0,1-5.225-1.082,7.333,7.333,0,0,1-5.413,2.388,7.417,7.417,0,0,1-7.38-7.442,7.416,7.416,0,0,1,7.38-7.439,7.332,7.332,0,0,1,5.364,2.336A40.437,40.437,0,0,1-2257-965.146a40.455,40.455,0,0,1,11.255,1.482,7.333,7.333,0,0,1,5.365-2.336,7.418,7.418,0,0,1,7.381,7.439,7.419,7.419,0,0,1-7.381,7.442,7.333,7.333,0,0,1-5.414-2.389,33.5,33.5,0,0,1-5.224,1.082,4.741,4.741,0,0,1-3.167,1.233h-.9l.01,1.356,5.816,3.256a2.034,2.034,0,0,1,1.009,2.087,2.016,2.016,0,0,1-1.6,1.674l-6.253,1.246,3.5,1.067a2.026,2.026,0,0,1,1.426,1.877,2.024,2.024,0,0,1-1.307,1.963l-3.574,1.346,2.835.965a2.022,2.022,0,0,1,1.365,1.81,2.03,2.03,0,0,1-1.16,1.948l-3.183,1.493,2.2.949a2.019,2.019,0,0,1,1.187,1.5,2.035,2.035,0,0,1-.594,1.827l-2.723,2.609L-2258.05-918Zm-17.5-40.359a2.02,2.02,0,0,0-.093,2.821,1.98,1.98,0,0,0,2.778-.349,2.019,2.019,0,0,0,.093-2.82A1.645,1.645,0,0,0-2276-964.2,2.264,2.264,0,0,0-2277.653-963.427Zm14.044.093c-1.723.5-1.811,1.22-.2,1.611a13.913,13.913,0,0,0,6.038-.2c1.723-.5,1.811-1.219.2-1.61a10.917,10.917,0,0,0-2.456-.243A13.628,13.628,0,0,0-2263.609-963.333Z" transform="translate(2281 966)" fill="#dbb28e"></path></svg>