<svg xmlns="http://www.w3.org/2000/svg" width="41.461" height="48" viewBox="0 0 41.461 48"><path d="M228.907,54.732s-7.831,1.868-9.085,1.868c-.358-.053-3.7-5-4.5-6.149-1.9-2.7-1.163-4.284-.047-6.682a20.263,20.263,0,0,0,1.1-2.724c1.2-4.025.518-6.2-.971-8.415-1.471-2.184-8.115-8.723-11.507-11.672l-.715-.622-.879.352a37.707,37.707,0,0,0-13.951,9.822l-.624.711.342.882c1.633,4.19,5.553,12.649,7.113,14.767,1.58,2.146,3.4,3.523,7.6,3.75a19.931,19.931,0,0,0,2.935-.12c.644-.061,1.28-.121,1.912-.121a4.786,4.786,0,0,1,4.365,2.417c.807,1.146,4.341,5.956,4.273,6.3-.18.723-4.825,7.942-4.825,7.942l2.828,1.3,14.923-10.508ZM197.268,36.9c.779,1.96,2.2,5.66,4.49,7.863,1.008.971,2.738,1.081,4.357,1.608l.134.823a16.069,16.069,0,0,1-3.3.319c-3.321-.168-4.239-1.1-5.259-2.489-1.109-1.506-4.439-8.418-6.36-13.148a34.22,34.22,0,0,1,11.257-7.926c3.806,3.4,9.193,8.866,10.238,10.417a5.22,5.22,0,0,1,1.025,2.507Z" transform="translate(-187.726 -20.337)" fill="#dbb28e"></path></svg>