<svg xmlns="http://www.w3.org/2000/svg" width="34" height="48" viewBox="0 0 34 48"><path d="M-2269.349-571.447A5.4,5.4,0,0,1-2264-576.9a5.4,5.4,0,0,1,5.349,5.449A5.4,5.4,0,0,1-2264-566,5.4,5.4,0,0,1-2269.349-571.447Zm5.858-10.309a5.4,5.4,0,0,1,5.347-5.447,5.4,5.4,0,0,1,5.35,5.447,5.4,5.4,0,0,1-5.35,5.447A5.4,5.4,0,0,1-2263.491-581.756Zm-11.715,0a5.4,5.4,0,0,1,5.348-5.447,5.4,5.4,0,0,1,5.349,5.447,5.4,5.4,0,0,1-5.349,5.447A5.4,5.4,0,0,1-2275.206-581.756Zm1.649-2.59a1.667,1.667,0,0,0,.721,2.206,1.615,1.615,0,0,0,2.019-1.083,1.668,1.668,0,0,0-.719-2.208,1.253,1.253,0,0,0-.478-.094A1.748,1.748,0,0,0-2273.557-584.347Zm15.861-7.861a5.4,5.4,0,0,1,5.347-5.447,5.4,5.4,0,0,1,5.349,5.447,5.4,5.4,0,0,1-5.349,5.449A5.4,5.4,0,0,1-2257.7-592.208Zm-11.716,0a5.4,5.4,0,0,1,5.348-5.447,5.4,5.4,0,0,1,5.348,5.447,5.4,5.4,0,0,1-5.348,5.449A5.4,5.4,0,0,1-2269.413-592.208Zm1.7-2.525a1.668,1.668,0,0,0,.719,2.206,1.621,1.621,0,0,0,2.021-1.084,1.668,1.668,0,0,0-.721-2.206,1.249,1.249,0,0,0-.478-.094A1.747,1.747,0,0,0-2267.708-594.733ZM-2281-592.208a5.4,5.4,0,0,1,5.348-5.447,5.4,5.4,0,0,1,5.349,5.447,5.4,5.4,0,0,1-5.349,5.449A5.4,5.4,0,0,1-2281-592.208Zm1.346-2.525a1.669,1.669,0,0,0,.72,2.206,1.62,1.62,0,0,0,2.021-1.084,1.67,1.67,0,0,0-.72-2.206,1.251,1.251,0,0,0-.478-.094A1.749,1.749,0,0,0-2279.654-594.733Zm15.357-4.762c-.03.026-5.14,1.494-8.208-.566-3.294-2.209-3.731-7.451-3.731-7.451a12.559,12.559,0,0,1,6.04-.359,12.512,12.512,0,0,0,2.9,6.226s.232-.133.6-.383a8.354,8.354,0,0,1-1.7-4.7c0-4.016,4.055-7.271,4.055-7.271a12.9,12.9,0,0,1,3.643,5.012c-2.943,2.067-3.862,6.478-3.862,6.478s.3.14.782.323a8.784,8.784,0,0,1,3.167-4.773c3.292-2.212,8.193-.551,8.193-.551s-.437,5.242-3.731,7.451a7.683,7.683,0,0,1-4.3,1.15A13.561,13.561,0,0,1-2264.3-599.495Z" transform="translate(2281 614)" fill="#dbb28e"></path></svg>