<svg xmlns="http://www.w3.org/2000/svg" width="48" height="46" viewBox="0 0 48 46"><path d="M-1964.144-569.207c4.873-5.631,12.015-8.9,18.815-9.98l-1.1,2.963A28.575,28.575,0,0,0-1961.507-568Zm-4.353-1.991c5.833-8.222,16.1-12.323,24.9-12.654-.336.9-.685,1.848-1.034,2.783-7.631.567-16.2,4.17-21.3,11.045Zm-4.6-2.106c7.04-10.552,20.483-15.345,31.1-14.865-.276.754-.62,1.685-1,2.716-9.537-.162-21.232,4.131-27.566,13.308Zm-11.777-4.963a26.5,26.5,0,0,1,18.845-4.528,32.291,32.291,0,0,0-3.28,2.532,23.29,23.29,0,0,0-14.175,4.39Zm-2.678-4.614c7.745-5.371,20.224-6.139,27.923-3.337a36.689,36.689,0,0,0-3.719,1.786c-7-1.5-16.76-.393-22.821,3.934Zm-2.445-4.211c11.415-7.973,27.4-6.671,37.064-1.189a37.928,37.928,0,0,0-4.019,1.081c-9.046-3.93-22.146-4.3-31.663,2.488Zm34.631-11.966-3.433,4.38.208-5.546-5.466,1.165,3.75-4.116-4.943-2.594,5.538-.761-2.106-5.141,4.735,2.951,1.717-5.281,1.716,5.281,4.735-2.951-2.106,5.141,5.537.761-4.941,2.594,3.75,4.116-5.466-1.165.208,5.546Z" transform="translate(1990 614)" fill="#dbb28e"></path></svg>